<svg xmlns="http://www.w3.org/2000/svg" width="25" height="20" viewBox="0 0 25 20" fill="none">
  <path d="M15 18.5C15 15.9217 11.8663 13.8333 8 13.8333C4.13367 13.8333 1 15.9217 1 18.5M19.6667 15V11.5M19.6667 11.5V8M19.6667 11.5H16.1667M19.6667 11.5H23.1667M8 10.3333C6.76232 10.3333 5.57534 9.84167 4.70017 8.9665C3.825 8.09133 3.33333 6.90434 3.33333 5.66667C3.33333 4.42899 3.825 3.242 4.70017 2.36683C5.57534 1.49167 6.76232 1 8 1C9.23768 1 10.4247 1.49167 11.2998 2.36683C12.175 3.242 12.6667 4.42899 12.6667 5.66667C12.6667 6.90434 12.175 8.09133 11.2998 8.9665C10.4247 9.84167 9.23768 10.3333 8 10.3333Z" stroke="#138AAC" stroke-width="2" stroke-linecap="round" stroke-linejoin="round"/>
</svg>