<svg xmlns="http://www.w3.org/2000/svg" width="144" height="136" viewBox="0 0 144 136" fill="none">
  <path fill-rule="evenodd" clip-rule="evenodd" d="M83.4592 13.0742C81.2935 15.4837 79.7594 18.3929 78.9943 21.541C78.2291 24.6891 78.2569 27.9778 79.0751 31.1125C79.8933 34.2473 81.4763 37.1301 83.6824 39.5027C85.8884 41.8753 88.6486 43.6636 91.7156 44.7073L94.1866 45.5506C95.1333 45.8732 95.9933 46.4087 96.7005 47.1159C97.4077 47.8231 97.9432 48.6831 98.2658 49.6298L99.1156 52.1008C100.158 55.1677 101.946 57.928 104.318 60.1341C106.69 62.3403 109.572 63.9235 112.707 64.7417C115.841 65.5599 119.129 65.5877 122.277 64.8225C125.425 64.0573 128.333 62.523 130.742 60.3572L130.736 98.0567C130.736 103.258 128.669 108.246 124.992 111.924C121.314 115.602 116.326 117.668 111.124 117.668H34.8624L13.0742 134.011C7.68764 138.051 0 134.207 0 127.474V32.6856C0 27.4843 2.06619 22.4961 5.74402 18.8183C9.42186 15.1404 14.4101 13.0742 19.6113 13.0742H83.4592ZM58.8339 71.9082H39.2226C37.4889 71.9082 35.8261 72.597 34.6002 73.8229C33.3743 75.0489 32.6855 76.7116 32.6855 78.4454C32.6855 80.1791 33.3743 81.8419 34.6002 83.0678C35.8261 84.2937 37.4889 84.9825 39.2226 84.9825H58.8339C60.5677 84.9825 62.2304 84.2937 63.4564 83.0678C64.6823 81.8419 65.371 80.1791 65.371 78.4454C65.371 76.7116 64.6823 75.0489 63.4564 73.8229C62.2304 72.597 60.5677 71.9082 58.8339 71.9082ZM71.9082 45.7598H39.2226C37.4889 45.7598 35.8261 46.4485 34.6002 47.6745C33.3743 48.9004 32.6855 50.5632 32.6855 52.2969C32.6855 54.0307 33.3743 55.6934 34.6002 56.9193C35.8261 58.1453 37.4889 58.834 39.2226 58.834H71.9082C73.6419 58.834 75.3046 58.1453 76.5306 56.9193C77.7565 55.6934 78.4453 54.0307 78.4453 52.2969C78.4453 50.5632 77.7565 48.9004 76.5306 47.6745C75.3046 46.4485 73.6419 45.7598 71.9082 45.7598ZM117.668 0C119.031 0.000544066 120.361 0.427489 121.47 1.22106C122.579 2.01464 123.412 3.13511 123.852 4.42563L124.702 6.89666C126.663 12.6428 131.174 17.1599 136.926 19.1211L139.391 19.9643C140.68 20.4061 141.799 21.2396 142.591 22.3484C143.383 23.4572 143.809 24.7858 143.809 26.1485C143.809 27.5111 143.383 28.8397 142.591 29.9485C141.799 31.0573 140.68 31.8908 139.391 32.3326L136.92 33.1824C131.174 35.1435 126.656 39.6541 124.695 45.4068L123.852 47.8713C123.41 49.1604 122.577 50.2792 121.468 51.0713C120.359 51.8634 119.031 52.2893 117.668 52.2893C116.305 52.2893 114.977 51.8634 113.868 51.0713C112.759 50.2792 111.926 49.1604 111.484 47.8713L110.634 45.4003C109.666 42.5641 108.061 39.9875 105.941 37.8684C103.822 35.7493 101.246 34.144 98.4096 33.1758L95.9451 32.3326C94.656 31.8908 93.5372 31.0573 92.7451 29.9485C91.9529 28.8397 91.5271 27.5111 91.5271 26.1485C91.5271 24.7858 91.9529 23.4572 92.7451 22.3484C93.5372 21.2396 94.656 20.4061 95.9451 19.9643L98.4161 19.1145C104.162 17.1534 108.679 12.6428 110.64 6.89012L111.484 4.42563C111.924 3.13511 112.757 2.01464 113.866 1.22106C114.975 0.427489 116.304 0.000544066 117.668 0Z" fill="#F5F5F5"/>
</svg>