<svg width="20" height="20" viewBox="0 0 20 20" fill="none" xmlns="http://www.w3.org/2000/svg">
<path d="M12.75 3.27793C12.4397 3.27793 12.1336 3.20572 11.856 3.067L7.644 0.961C7.3664 0.822283 7.06033 0.750068 6.75 0.750068M12.75 3.27793C13.0603 3.27793 13.3664 3.20572 13.644 3.067L17.303 1.237C17.4556 1.16076 17.6251 1.12481 17.7955 1.13257C17.9659 1.14033 18.1314 1.19154 18.2765 1.28133C18.4215 1.37112 18.5411 1.49651 18.624 1.64558C18.7069 1.79465 18.7503 1.96244 18.75 2.133V14.897C18.7499 15.0827 18.6981 15.2646 18.6005 15.4225C18.5028 15.5804 18.3631 15.708 18.197 15.791L13.644 18.068C13.3664 18.2067 13.0603 18.2789 12.75 18.2789M12.75 3.27793V18.2789M12.75 18.2789C12.4397 18.2789 12.1336 18.2067 11.856 18.068L7.644 15.962C7.3664 15.8233 7.06033 15.7511 6.75 15.7511C6.43967 15.7511 6.1336 15.8233 5.856 15.962L2.197 17.792C2.04436 17.8683 1.87473 17.9042 1.70426 17.8964C1.53379 17.8886 1.36816 17.8373 1.22312 17.7474C1.07808 17.6575 0.958464 17.532 0.87565 17.3828C0.792836 17.2336 0.749582 17.0656 0.750003 16.895V4.132C0.750102 3.94634 0.801886 3.76437 0.899555 3.60647C0.997225 3.44858 1.13692 3.32099 1.303 3.238L5.856 0.961C6.1336 0.822283 6.43967 0.750068 6.75 0.750068M6.75 0.750068V15.75" stroke="#A5A5A5" stroke-width="1.5" stroke-linecap="round" stroke-linejoin="round"/>
</svg>
