<svg xmlns="http://www.w3.org/2000/svg" width="61" height="61" viewBox="0 0 61 61" fill="none">
  <g filter="url(#filter0_d_402_1367)">
    <rect x="4" y="4" width="53" height="53" rx="8" fill="white"/>
    <path d="M43.75 26.0833C43.75 24.9119 43.2847 23.7885 42.4564 22.9602C41.6281 22.132 40.5047 21.6666 39.3333 21.6666H21.6667C20.4953 21.6666 19.3719 22.132 18.5436 22.9602C17.7153 23.7885 17.25 24.9119 17.25 26.0833V39.3333C17.25 40.5047 17.7153 41.6281 18.5436 42.4564C19.3719 43.2846 20.4953 43.75 21.6667 43.75H39.3333C40.5047 43.75 41.6281 43.2846 42.4564 42.4564C43.2847 41.6281 43.75 40.5047 43.75 39.3333V26.0833ZM21.6667 34.9166V30.5C21.6667 29.9143 21.8993 29.3526 22.3135 28.9384C22.7276 28.5243 23.2893 28.2916 23.875 28.2916C24.4607 28.2916 25.0224 28.5243 25.4365 28.9384C25.8507 29.3526 26.0833 29.9143 26.0833 30.5V34.9166C26.0833 35.5023 25.8507 36.064 25.4365 36.4782C25.0224 36.8923 24.4607 37.125 23.875 37.125C23.2893 37.125 22.7276 36.8923 22.3135 36.4782C21.8993 36.064 21.6667 35.5023 21.6667 34.9166ZM34.9167 34.9166V30.5C34.9167 29.9143 35.1493 29.3526 35.5635 28.9384C35.9776 28.5243 36.5393 28.2916 37.125 28.2916C37.7107 28.2916 38.2724 28.5243 38.6865 28.9384C39.1007 29.3526 39.3333 29.9143 39.3333 30.5V34.9166C39.3333 35.5023 39.1007 36.064 38.6865 36.4782C38.2724 36.8923 37.7107 37.125 37.125 37.125C36.5393 37.125 35.9776 36.8923 35.5635 36.4782C35.1493 36.064 34.9167 35.5023 34.9167 34.9166ZM34.9167 12.8333C34.9167 14.4675 34.0267 15.8874 32.7083 16.6537V17.25H39.3333C41.6761 17.25 43.9229 18.1806 45.5794 19.8372C47.236 21.4938 48.1667 23.7406 48.1667 26.0833V26.1937C49.4129 26.4493 50.5326 27.1273 51.3368 28.1131C52.1409 29.0988 52.58 30.332 52.58 31.6041C52.58 32.8763 52.1409 34.1094 51.3368 35.0952C50.5326 36.081 49.4129 36.759 48.1667 37.0146V39.3333C48.1667 41.676 47.236 43.9228 45.5794 45.5794C43.9229 47.236 41.6761 48.1666 39.3333 48.1666H21.6667C19.3239 48.1666 17.0771 47.236 15.4206 45.5794C13.764 43.9228 12.8333 41.676 12.8333 39.3333V37.0146C11.5853 36.7611 10.4633 36.084 9.65733 35.098C8.8514 34.112 8.41113 32.8776 8.41113 31.6041C8.41113 30.3306 8.8514 29.0963 9.65733 28.1103C10.4633 27.1242 11.5853 26.4471 12.8333 26.1937V26.0833C12.8333 23.7406 13.764 21.4938 15.4206 19.8372C17.0771 18.1806 19.3239 17.25 21.6667 17.25H28.2917V16.6537C27.6201 16.266 27.0624 15.7083 26.6748 15.0366C26.2871 14.365 26.0831 13.6031 26.0833 12.8276C26.0835 12.0522 26.2879 11.2904 26.6759 10.619C27.0639 9.94754 27.6218 9.39009 28.2936 9.0027C28.9654 8.6153 29.7274 8.41161 30.5028 8.41211C31.2783 8.41261 32.04 8.61727 32.7113 9.00553C33.3826 9.39379 33.9398 9.95194 34.3269 10.6239C34.7141 11.2958 34.9175 12.0578 34.9167 12.8333Z" fill="white"/>
    <path d="M43.75 26.0833C43.75 24.9119 43.2847 23.7885 42.4564 22.9602C41.6281 22.132 40.5047 21.6666 39.3333 21.6666H21.6667C20.4953 21.6666 19.3719 22.132 18.5436 22.9602C17.7153 23.7885 17.25 24.9119 17.25 26.0833V39.3333C17.25 40.5047 17.7153 41.6281 18.5436 42.4564C19.3719 43.2846 20.4953 43.75 21.6667 43.75H39.3333C40.5047 43.75 41.6281 43.2846 42.4564 42.4564C43.2847 41.6281 43.75 40.5047 43.75 39.3333V26.0833ZM21.6667 34.9166V30.5C21.6667 29.9143 21.8993 29.3526 22.3135 28.9384C22.7276 28.5243 23.2893 28.2916 23.875 28.2916C24.4607 28.2916 25.0224 28.5243 25.4365 28.9384C25.8507 29.3526 26.0833 29.9143 26.0833 30.5V34.9166C26.0833 35.5023 25.8507 36.064 25.4365 36.4782C25.0224 36.8923 24.4607 37.125 23.875 37.125C23.2893 37.125 22.7276 36.8923 22.3135 36.4782C21.8993 36.064 21.6667 35.5023 21.6667 34.9166ZM34.9167 34.9166V30.5C34.9167 29.9143 35.1493 29.3526 35.5635 28.9384C35.9776 28.5243 36.5393 28.2916 37.125 28.2916C37.7107 28.2916 38.2724 28.5243 38.6865 28.9384C39.1007 29.3526 39.3333 29.9143 39.3333 30.5V34.9166C39.3333 35.5023 39.1007 36.064 38.6865 36.4782C38.2724 36.8923 37.7107 37.125 37.125 37.125C36.5393 37.125 35.9776 36.8923 35.5635 36.4782C35.1493 36.064 34.9167 35.5023 34.9167 34.9166ZM34.9167 12.8333C34.9167 14.4675 34.0267 15.8874 32.7083 16.6537V17.25H39.3333C41.6761 17.25 43.9229 18.1806 45.5794 19.8372C47.236 21.4938 48.1667 23.7406 48.1667 26.0833V26.1937C49.4129 26.4493 50.5326 27.1273 51.3368 28.1131C52.1409 29.0988 52.58 30.332 52.58 31.6041C52.58 32.8763 52.1409 34.1094 51.3368 35.0952C50.5326 36.081 49.4129 36.759 48.1667 37.0146V39.3333C48.1667 41.676 47.236 43.9228 45.5794 45.5794C43.9229 47.236 41.6761 48.1666 39.3333 48.1666H21.6667C19.3239 48.1666 17.0771 47.236 15.4206 45.5794C13.764 43.9228 12.8333 41.676 12.8333 39.3333V37.0146C11.5853 36.7611 10.4633 36.084 9.65733 35.098C8.8514 34.112 8.41113 32.8776 8.41113 31.6041C8.41113 30.3306 8.8514 29.0963 9.65733 28.1103C10.4633 27.1242 11.5853 26.4471 12.8333 26.1937V26.0833C12.8333 23.7406 13.764 21.4938 15.4206 19.8372C17.0771 18.1806 19.3239 17.25 21.6667 17.25H28.2917V16.6537C27.6201 16.266 27.0624 15.7083 26.6748 15.0366C26.2871 14.365 26.0831 13.6031 26.0833 12.8276C26.0835 12.0522 26.2879 11.2904 26.6759 10.619C27.0639 9.94754 27.6218 9.39009 28.2936 9.0027C28.9654 8.6153 29.7274 8.41161 30.5028 8.41211C31.2783 8.41261 32.04 8.61727 32.7113 9.00553C33.3826 9.39379 33.9398 9.95194 34.3269 10.6239C34.7141 11.2958 34.9175 12.0578 34.9167 12.8333Z" fill="url(#paint0_linear_402_1367)"/>
  </g>
  <defs>
    <filter id="filter0_d_402_1367" x="0" y="0" width="61" height="61" filterUnits="userSpaceOnUse" color-interpolation-filters="sRGB">
      <feFlood flood-opacity="0" result="BackgroundImageFix"/>
      <feColorMatrix in="SourceAlpha" type="matrix" values="0 0 0 0 0 0 0 0 0 0 0 0 0 0 0 0 0 0 127 0" result="hardAlpha"/>
      <feOffset/>
      <feGaussianBlur stdDeviation="2"/>
      <feComposite in2="hardAlpha" operator="out"/>
      <feColorMatrix type="matrix" values="0 0 0 0 0 0 0 0 0 0 0 0 0 0 0 0 0 0 0.1 0"/>
      <feBlend mode="normal" in2="BackgroundImageFix" result="effect1_dropShadow_402_1367"/>
      <feBlend mode="normal" in="SourceGraphic" in2="effect1_dropShadow_402_1367" result="shape"/>
    </filter>
    <linearGradient id="paint0_linear_402_1367" x1="8.41113" y1="8.41211" x2="59.9697" y2="32.045" gradientUnits="userSpaceOnUse">
      <stop stop-color="#4784C1"/>
      <stop offset="1" stop-color="#6BDAD2"/>
    </linearGradient>
  </defs>
</svg>