<svg width="35" height="35" viewBox="0 0 35 35" fill="none" xmlns="http://www.w3.org/2000/svg">
<path d="M23.3335 8.84961C25.6275 8.8497 27.8276 9.76072 29.4497 11.3828C31.0718 13.0049 31.9828 15.205 31.9829 17.499C31.9829 19.7931 31.0719 21.994 29.4497 23.6162C27.8276 25.2382 25.6274 26.1493 23.3335 26.1494H19.8452L21.731 28.0352C21.9777 28.2912 22.1139 28.6337 22.1108 28.9893C22.1077 29.3454 21.9652 29.6866 21.7134 29.9385C21.4616 30.1901 21.121 30.3327 20.7651 30.3359C20.409 30.339 20.0653 30.2015 19.8091 29.9541H19.8081L15.6851 25.832C15.4304 25.5773 15.2876 25.2313 15.2876 24.8711C15.2876 24.511 15.4305 24.1658 15.6851 23.9111L19.8101 19.7852C20.0649 19.5305 20.4108 19.3877 20.771 19.3877C21.1313 19.3878 21.4772 19.5313 21.7319 19.7861C21.9866 20.041 22.1295 20.3868 22.1294 20.7471C22.1292 21.1073 21.9858 21.4524 21.731 21.707L20.1753 23.2617L20.0044 23.4326H23.3335C24.9069 23.4325 26.4162 22.8079 27.5288 21.6953C28.6415 20.5826 29.2661 19.0726 29.2661 17.499C29.266 15.9255 28.6414 14.4163 27.5288 13.3037C26.4162 12.1911 24.907 11.5665 23.3335 11.5664C22.9732 11.5664 22.6273 11.4227 22.3726 11.168C22.118 10.9133 21.9752 10.5681 21.9751 10.208C21.9751 9.84776 22.1178 9.50181 22.3726 9.24707C22.6273 8.99235 22.9733 8.84961 23.3335 8.84961ZM14.4136 4.75977C14.7739 4.75985 15.1197 4.90338 15.3745 5.1582L19.4985 9.28418C19.7531 9.53887 19.896 9.88407 19.896 10.2441C19.896 10.6042 19.753 10.9494 19.4985 11.2041L15.3745 15.3291C15.1198 15.5839 14.7739 15.7264 14.4136 15.7266C14.0533 15.7266 13.7075 15.5838 13.4526 15.3291C13.198 15.0745 13.0544 14.7292 13.0542 14.3691C13.0541 14.0088 13.1979 13.6631 13.4526 13.4082L15.1245 11.7363L15.2954 11.5664H11.6665C10.093 11.5664 8.58389 12.1911 7.47119 13.3037C6.35857 14.4163 5.73301 15.9255 5.73291 17.499C5.73291 19.0726 6.35848 20.5826 7.47119 21.6953C8.58388 22.8078 10.093 23.4326 11.6665 23.4326C12.0268 23.4326 12.3727 23.5763 12.6274 23.8311C12.8819 24.0857 13.0249 24.431 13.0249 24.791C13.0249 25.1513 12.8822 25.4972 12.6274 25.752C12.3727 26.0067 12.0268 26.1494 11.6665 26.1494C9.37252 26.1494 7.17245 25.2382 5.55029 23.6162C3.9281 21.994 3.01611 19.7931 3.01611 17.499C3.01621 15.205 3.92819 13.0049 5.55029 11.3828C7.17246 9.76074 9.37247 8.84961 11.6665 8.84961H15.2231L15.0522 8.67871L13.4526 7.08008C13.3265 6.95393 13.226 6.80445 13.1577 6.63965C13.0894 6.47475 13.0542 6.29763 13.0542 6.11914C13.0542 5.75873 13.1978 5.41305 13.4526 5.1582C13.7075 4.90346 14.0532 4.75977 14.4136 4.75977Z" fill="#A5A5A5" stroke="white" stroke-width="0.2"/>
</svg>
