<svg width="56" height="56" viewBox="0 0 56 56" fill="none" xmlns="http://www.w3.org/2000/svg">
<path d="M28 7V11.6667" stroke="url(#paint0_linear_266_1082)" stroke-width="6" stroke-linecap="round" stroke-linejoin="round"/>
<path d="M23.3335 45.2676C23.3335 47.8342 25.4335 49.9342 28.0002 49.9342C30.5668 49.9342 32.6668 47.8342 32.6668 45.2676" fill="url(#paint1_linear_266_1082)"/>
<path d="M23.3335 45.2676C23.3335 47.8342 25.4335 49.9342 28.0002 49.9342C30.5668 49.9342 32.6668 47.8342 32.6668 45.2676" stroke="url(#paint2_linear_266_1082)" stroke-width="2" stroke-linecap="round" stroke-linejoin="round"/>
<path d="M28.0002 11.666C20.2768 11.666 14.0002 17.9427 14.0002 25.666V39.666C11.6668 39.666 9.3335 41.9994 9.3335 44.3327H28.0002M28.0002 11.666C35.7235 11.666 42.0002 17.9427 42.0002 25.666V39.666C44.3335 39.666 46.6668 41.9994 46.6668 44.3327H28.0002" fill="black"/>
<path d="M28.0002 11.666C20.2768 11.666 14.0002 17.9427 14.0002 25.666V39.666C11.6668 39.666 9.3335 41.9994 9.3335 44.3327H28.0002M28.0002 11.666C35.7235 11.666 42.0002 17.9427 42.0002 25.666V39.666C44.3335 39.666 46.6668 41.9994 46.6668 44.3327H28.0002" fill="url(#paint3_linear_266_1082)"/>
<path d="M28.0002 11.666C20.2768 11.666 14.0002 17.9427 14.0002 25.666V39.666C11.6668 39.666 9.3335 41.9994 9.3335 44.3327H28.0002H46.6668C46.6668 41.9994 44.3335 39.666 42.0002 39.666V25.666C42.0002 17.9427 35.7235 11.666 28.0002 11.666Z" stroke="url(#paint4_linear_266_1082)" stroke-width="2" stroke-linecap="round" stroke-linejoin="round"/>
<defs>
<linearGradient id="paint0_linear_266_1082" x1="27.41" y1="7" x2="35.1573" y2="6.3743" gradientUnits="userSpaceOnUse">
<stop offset="0.1025" stop-color="#EBDDB3"/>
<stop offset="1" stop-color="#F9C23C"/>
</linearGradient>
<linearGradient id="paint1_linear_266_1082" x1="21.7501" y1="46.3867" x2="32.8883" y2="57.2817" gradientUnits="userSpaceOnUse">
<stop offset="0.00113575" stop-color="#EBDDB3"/>
<stop offset="1" stop-color="#F9C23C"/>
</linearGradient>
<linearGradient id="paint2_linear_266_1082" x1="21.7501" y1="46.3867" x2="32.8883" y2="57.2817" gradientUnits="userSpaceOnUse">
<stop offset="0.00113575" stop-color="#EBDDB3"/>
<stop offset="1" stop-color="#F9C23C"/>
</linearGradient>
<linearGradient id="paint3_linear_266_1082" x1="3" y1="19.5" x2="69.4274" y2="56.6299" gradientUnits="userSpaceOnUse">
<stop offset="0.00113575" stop-color="#EBDDB3"/>
<stop offset="1" stop-color="#F9C23C"/>
</linearGradient>
<linearGradient id="paint4_linear_266_1082" x1="3" y1="19.5" x2="69.4274" y2="56.6299" gradientUnits="userSpaceOnUse">
<stop offset="0.00113575" stop-color="#EBDDB3"/>
<stop offset="1" stop-color="#F9C23C"/>
</linearGradient>
</defs>
</svg>
