<svg width="28" height="28" viewBox="0 0 28 28" fill="none" xmlns="http://www.w3.org/2000/svg">
<path d="M11.375 17.9489C11.3911 18.5183 11.6286 19.059 12.0371 19.4561C12.4456 19.8532 12.9928 20.0754 13.5625 20.0754C14.1322 20.0754 14.6794 19.8532 15.0879 19.4561C15.4964 19.059 15.7339 18.5183 15.75 17.9489V3.92612C15.7339 3.35667 15.4964 2.81594 15.0879 2.41886C14.6794 2.02177 14.1322 1.79962 13.5625 1.79962C12.9928 1.79962 12.4456 2.02177 12.0371 2.41886C11.6286 2.81594 11.3911 3.35667 11.375 3.92612V17.9489ZM11.375 24.0625C11.375 25.2656 12.3594 26.25 13.5625 26.25C14.7656 26.25 15.75 25.2656 15.75 24.0625C15.75 22.8594 14.7656 21.875 13.5625 21.875C12.983 21.8773 12.428 22.1085 12.0182 22.5182C11.6085 22.928 11.3773 23.483 11.375 24.0625Z" fill="#9A6800"/>
</svg>
