<svg width="28" height="28" viewBox="0 0 28 28" fill="none" xmlns="http://www.w3.org/2000/svg">
<mask id="mask0_1636_2991" style="mask-type:luminance" maskUnits="userSpaceOnUse" x="1" y="2" width="26" height="24">
<path d="M2.91669 4.66667C2.91669 4.35725 3.0396 4.0605 3.2584 3.84171C3.47719 3.62292 3.77393 3.5 4.08335 3.5H11.0834L14 7H23.9167C24.2261 7 24.5229 7.12292 24.7416 7.34171C24.9604 7.5605 25.0834 7.85725 25.0834 8.16667V23.3333C25.0834 23.6428 24.9604 23.9395 24.7416 24.1583C24.5229 24.3771 24.2261 24.5 23.9167 24.5H4.08335C3.77393 24.5 3.47719 24.3771 3.2584 24.1583C3.0396 23.9395 2.91669 23.6428 2.91669 23.3333V4.66667Z" fill="white" stroke="white" stroke-width="2" stroke-linejoin="round"/>
<path d="M11.0834 12.8333L16.9167 18.6666M16.9167 12.8333L11.0834 18.6666" stroke="black" stroke-width="2" stroke-linecap="round" stroke-linejoin="round"/>
</mask>
<g mask="url(#mask0_1636_2991)">
<path d="M0 0H28V28H0V0Z" fill="#C0392B"/>
</g>
</svg>
