<svg width="48" height="48" viewBox="0 0 48 48" fill="none" xmlns="http://www.w3.org/2000/svg">
<path d="M24 20C23.4696 20 22.9609 20.2107 22.5858 20.5858C22.2107 20.9609 22 21.4696 22 22V34C22 34.5304 22.2107 35.0391 22.5858 35.4142C22.9609 35.7893 23.4696 36 24 36C24.5304 36 25.0391 35.7893 25.4142 35.4142C25.7893 35.0391 26 34.5304 26 34V22C26 21.4696 25.7893 20.9609 25.4142 20.5858C25.0391 20.2107 24.5304 20 24 20ZM24 12C23.5055 12 23.0222 12.1466 22.6111 12.4213C22.2 12.696 21.8795 13.0865 21.6903 13.5433C21.5011 14.0001 21.4516 14.5028 21.548 14.9877C21.6445 15.4727 21.8826 15.9181 22.2322 16.2678C22.5819 16.6174 23.0273 16.8555 23.5123 16.952C23.9972 17.0484 24.4999 16.9989 24.9567 16.8097C25.4135 16.6205 25.804 16.3 26.0787 15.8889C26.3534 15.4778 26.5 14.9945 26.5 14.5C26.5 13.837 26.2366 13.2011 25.7678 12.7322C25.2989 12.2634 24.663 12 24 12Z" fill="#1A6FA8"/>
</svg>
