<svg width="298" height="311" viewBox="0 0 298 311" fill="none" xmlns="http://www.w3.org/2000/svg">
<rect width="298" height="311" rx="50" fill="#E9F4F7"/>
<g filter="url(#filter0_d_507_2323)">
<path d="M224.086 200.46C223.304 212.752 220.622 223.815 216.04 233.649C211.57 243.483 205.536 251.864 197.937 258.792C190.338 265.721 181.286 271.085 170.781 274.884C160.277 278.572 148.655 280.416 135.915 280.416C125.858 280.416 116.527 279.131 107.922 276.56C99.4288 273.878 91.7739 270.079 84.9571 265.162C78.6991 260.58 73.1116 255.049 68.1946 248.567C63.3893 242.086 59.3104 234.934 55.9579 227.112C52.7172 219.289 50.2028 210.685 48.4148 201.298C46.7385 191.911 45.9004 181.965 45.9004 171.461V138.607C45.9004 128.773 46.6826 119.442 48.2471 110.614C49.8117 101.674 52.1584 93.4043 55.2874 85.8054C58.8634 76.5302 63.5569 68.2608 69.368 60.9972C75.179 53.7335 81.7722 47.5873 89.1478 42.5586C95.741 38.3122 102.949 35.0715 110.771 32.8365C118.706 30.4898 127.199 29.3164 136.25 29.3164C149.661 29.3164 161.562 31.2161 171.955 35.0156C182.459 38.815 191.399 44.2349 198.775 51.275C206.15 58.3152 211.961 66.9198 216.208 77.089C220.454 87.2581 223.136 98.7123 224.254 111.452H177.319C176.872 104.188 175.754 97.8183 173.966 92.3427C172.29 86.867 169.831 82.2853 166.591 78.5976C163.238 75.0216 159.048 72.3396 154.019 70.5517C149.102 68.6519 143.179 67.7021 136.25 67.7021C132.563 67.7021 129.098 68.0932 125.858 68.8754C122.729 69.6577 119.823 70.831 117.141 72.3955C112.559 75.0775 108.648 78.9328 105.407 83.9615C102.278 88.8785 99.764 94.6335 97.8643 101.227C96.4115 106.367 95.3499 112.066 94.6794 118.324C94.0089 124.47 93.6736 131.119 93.6736 138.271V171.461C93.6736 181.183 94.1765 189.899 95.1823 197.61C96.2998 205.209 97.976 211.858 100.211 217.557C101.776 221.468 103.619 224.932 105.743 227.95C107.978 230.967 110.492 233.481 113.286 235.493C116.303 237.728 119.656 239.404 123.343 240.521C127.143 241.527 131.333 242.03 135.915 242.03C142.062 242.03 147.593 241.248 152.51 239.683C157.427 238.119 161.618 235.66 165.082 232.308C168.546 228.955 171.284 224.653 173.296 219.401C175.307 214.149 176.536 207.835 176.983 200.46H224.086Z" fill="#025A74"/>
</g>
<g filter="url(#filter1_d_507_2323)">
<path d="M228.008 72.2535C233.604 66.2411 242.26 66.7324 247.344 73.3508C252.427 79.9692 252.012 90.207 246.416 96.2194L159.017 190.122C153.799 195.729 145.834 195.732 140.613 190.129L114.393 161.986C108.795 155.977 108.375 145.738 113.456 139.117C118.536 132.496 127.194 131.998 132.793 138.007L149.808 156.27L228.008 72.2535Z" fill="url(#paint0_linear_507_2323)"/>
</g>
<defs>
<filter id="filter0_d_507_2323" x="36.9004" y="20.3164" width="198.354" height="271.1" filterUnits="userSpaceOnUse" color-interpolation-filters="sRGB">
<feFlood flood-opacity="0" result="BackgroundImageFix"/>
<feColorMatrix in="SourceAlpha" type="matrix" values="0 0 0 0 0 0 0 0 0 0 0 0 0 0 0 0 0 0 127 0" result="hardAlpha"/>
<feOffset dx="1" dy="1"/>
<feGaussianBlur stdDeviation="5"/>
<feComposite in2="hardAlpha" operator="out"/>
<feColorMatrix type="matrix" values="0 0 0 0 0 0 0 0 0 0 0 0 0 0 0 0 0 0 0.1 0"/>
<feBlend mode="normal" in2="BackgroundImageFix" result="effect1_dropShadow_507_2323"/>
<feBlend mode="normal" in="SourceGraphic" in2="effect1_dropShadow_507_2323" result="shape"/>
</filter>
<filter id="filter1_d_507_2323" x="91.9036" y="50.0469" width="180.997" height="166.283" filterUnits="userSpaceOnUse" color-interpolation-filters="sRGB">
<feFlood flood-opacity="0" result="BackgroundImageFix"/>
<feColorMatrix in="SourceAlpha" type="matrix" values="0 0 0 0 0 0 0 0 0 0 0 0 0 0 0 0 0 0 127 0" result="hardAlpha"/>
<feOffset dx="2" dy="2"/>
<feGaussianBlur stdDeviation="10"/>
<feComposite in2="hardAlpha" operator="out"/>
<feColorMatrix type="matrix" values="0 0 0 0 0 0 0 0 0 0 0 0 0 0 0 0 0 0 0.2 0"/>
<feBlend mode="normal" in2="BackgroundImageFix" result="effect1_dropShadow_507_2323"/>
<feBlend mode="normal" in="SourceGraphic" in2="effect1_dropShadow_507_2323" result="shape"/>
</filter>
<linearGradient id="paint0_linear_507_2323" x1="109.904" y1="68.0469" x2="274.208" y2="143.731" gradientUnits="userSpaceOnUse">
<stop stop-color="#4784C1"/>
<stop offset="1" stop-color="#6BDAD2"/>
</linearGradient>
</defs>
</svg>
