<svg width="36" height="35" viewBox="0 0 36 35" fill="none" xmlns="http://www.w3.org/2000/svg">
<rect width="36" height="35" rx="17.5" fill="#F2F2F2"/>
<path opacity="0.987" fill-rule="evenodd" clip-rule="evenodd" d="M16.9136 8.45853C17.9104 8.34716 18.5003 8.34716 19.5714 8.45853C21.4675 8.73916 23.2251 9.61557 24.5902 10.961C23.6677 11.833 22.7574 12.7176 21.8594 13.6148C20.1398 12.1573 18.2203 11.8209 16.1009 12.6055C14.5463 13.3205 13.4637 14.4792 12.8532 16.0815C11.8555 15.3388 10.8709 14.5788 9.89969 13.8018C9.83219 13.7663 9.7551 13.7532 9.67969 13.7647C11.2224 10.7901 13.6333 9.02091 16.9122 8.45716" fill="#F44336"/>
<path opacity="0.997" fill-rule="evenodd" clip-rule="evenodd" d="M9.6761 13.7642C9.75401 13.7522 9.82781 13.7646 9.89747 13.8013C10.8687 14.5783 11.8533 15.3383 12.851 16.081C12.694 16.7054 12.595 17.3429 12.5553 17.9854C12.5893 18.6069 12.6878 19.2169 12.851 19.8155L9.75035 22.2837C8.4001 19.4622 8.37535 16.6223 9.6761 13.7642Z" fill="#FFC107"/>
<path opacity="0.999" fill-rule="evenodd" clip-rule="evenodd" d="M24.4421 25.2733C23.4767 24.4218 22.4659 23.6232 21.4143 22.8808C22.4685 22.1364 23.1083 21.1153 23.3338 19.8173H18.168V16.2299C21.1471 16.2051 24.1249 16.2304 27.1013 16.3055C27.666 19.3718 27.0138 22.1364 25.1447 24.5995C24.9225 24.8358 24.687 25.0607 24.4421 25.2733Z" fill="#448AFF"/>
<path opacity="0.993" fill-rule="evenodd" clip-rule="evenodd" d="M12.8506 19.8184C13.9781 22.6206 16.0452 23.9287 19.0519 23.7426C19.8959 23.6449 20.7051 23.35 21.4141 22.8819C22.4665 23.6262 23.4757 24.4237 24.4419 25.2744C22.911 26.65 20.9592 27.4662 18.9047 27.5899C18.438 27.6272 17.969 27.6272 17.5023 27.5899C14.0024 27.1774 11.4183 25.4091 9.75 22.2851L12.8506 19.8184Z" fill="#43A047"/>
</svg>
