<svg width="418" height="116" viewBox="0 0 418 116" fill="none" xmlns="http://www.w3.org/2000/svg">
<rect x="2.83398" y="9.60938" width="214.611" height="94.969" rx="12" fill="#E9F4F7"/>
<rect x="217.318" y="9.01562" width="198.95" height="95.5304" rx="12" fill="#E9F4F7"/>
<g filter="url(#filter0_d_139_3634)">
<path d="M341.605 68.0653C341.605 63.0777 342.323 58.4705 343.76 54.2437C345.198 49.9746 347.311 46.2762 350.101 43.1484C352.848 40.0205 356.209 37.569 360.182 35.7937C364.198 34.0185 368.784 33.1309 373.941 33.1309C379.097 33.1309 383.684 34.0185 387.699 35.7937C391.715 37.569 395.117 40.0205 397.907 43.1484C400.655 46.2762 402.747 49.9746 404.184 54.2437C405.621 58.4705 406.34 63.0777 406.34 68.0653V69.3968C406.34 74.4266 405.621 79.0761 404.184 83.3452C402.747 87.572 400.655 91.2493 397.907 94.3771C395.16 97.5049 391.778 99.9565 387.763 101.732C383.747 103.465 379.182 104.331 374.067 104.331C368.911 104.331 364.303 103.465 360.245 101.732C356.23 99.9565 352.848 97.5049 350.101 94.3771C347.311 91.2493 345.198 87.572 343.76 83.3452C342.323 79.0761 341.605 74.4266 341.605 69.3968V68.0653ZM359.231 69.3968C359.231 72.271 359.506 74.9761 360.055 77.5122C360.605 80.006 361.471 82.1828 362.655 84.0426C363.838 85.9446 365.36 87.4452 367.22 88.5441C369.122 89.6431 371.404 90.1926 374.067 90.1926C376.646 90.1926 378.865 89.6431 380.725 88.5441C382.585 87.4452 384.106 85.9446 385.29 84.0426C386.431 82.1828 387.277 80.006 387.826 77.5122C388.376 74.9761 388.65 72.271 388.65 69.3968V68.0653C388.65 65.2756 388.376 62.6339 387.826 60.1401C387.277 57.6463 386.431 55.4483 385.29 53.5463C384.106 51.6442 382.585 50.1437 380.725 49.0447C378.865 47.9458 376.604 47.3963 373.941 47.3963C371.32 47.3963 369.08 47.9458 367.22 49.0447C365.36 50.1437 363.838 51.6442 362.655 53.5463C361.471 55.4483 360.605 57.6463 360.055 60.1401C359.506 62.6339 359.231 65.2756 359.231 68.0653V69.3968Z" fill="#025A74"/>
</g>
<g filter="url(#filter1_d_139_3634)">
<path d="M306.655 104.546H292.444L327.163 9.01562H341.602L324.129 56.7471L306.655 104.546Z" fill="#025A74"/>
</g>
<g filter="url(#filter2_d_139_3634)">
<path d="M231.27 35.9458H268.615V90.2178H287.192V104.547H231.27V90.2178H250.798V50.338H231.27V35.9458ZM249.53 18.3835C249.53 17.0309 249.763 15.784 250.227 14.6428C250.735 13.4593 251.432 12.4448 252.32 11.5995C253.207 10.7964 254.264 10.1624 255.49 9.69742C256.758 9.23247 258.153 9 259.675 9C262.803 9 265.275 9.88763 267.093 11.6629C268.953 13.3959 269.883 15.6361 269.883 18.3835C269.883 21.1309 268.953 23.3922 267.093 25.1675C265.275 26.9005 262.803 27.767 259.675 27.767C258.153 27.767 256.758 27.5345 255.49 27.0695C254.264 26.6046 253.207 25.9494 252.32 25.1041C251.432 24.301 250.735 23.3288 250.227 22.1876C249.763 21.0041 249.53 19.7361 249.53 18.3835Z" fill="#025A74"/>
</g>
<g filter="url(#filter3_d_139_3634)">
<path d="M159.476 9.60938H197.805V90.6051H217.445V104.578H159.476V90.6051H180.003V23.6445H159.476V9.60938Z" fill="#025A74"/>
</g>
<g filter="url(#filter4_d_139_3634)">
<path d="M132.34 104.569C131.917 103.723 130.399 101.483 130.104 100.384C129.808 99.2851 129.554 98.1227 129.343 96.8969C128.371 97.9537 127.25 98.9469 125.982 99.8768C124.714 100.807 123.319 101.61 121.798 102.286C120.234 103.005 118.522 103.554 116.662 103.935C114.802 104.357 112.794 104.569 110.639 104.569C107.13 104.569 103.897 104.061 100.938 103.047C98.0213 102.033 95.5062 100.617 93.3928 98.799C91.2793 96.9815 89.6308 94.8258 88.4473 92.332C87.2638 89.7959 86.672 87.0485 86.672 84.0898C86.672 80.2856 87.4117 76.9254 88.8911 74.0089C90.3705 71.0501 92.5897 68.6197 95.5485 66.7176C98.2115 64.9847 101.487 63.6743 105.376 62.7867C109.307 61.8568 113.809 61.3919 118.881 61.3919H128.709V57.3342C128.709 55.728 128.455 54.2909 127.948 53.0228C127.441 51.7125 126.68 50.5924 125.665 49.6625C124.609 48.6904 123.277 47.9507 121.671 47.4435C120.107 46.894 118.268 46.6192 116.155 46.6192C114.295 46.6192 112.689 46.8517 111.336 47.3167C109.983 47.7393 108.884 48.3522 108.039 49.1553C107.278 49.8739 106.708 50.7404 106.327 51.7548C105.989 52.7692 105.82 53.8893 105.82 55.1151H88.1937C88.1937 52.1986 88.8277 49.4301 90.0958 46.8094C91.4061 44.1888 93.3083 41.8852 95.8021 39.8986C98.2537 37.912 101.255 36.3481 104.805 35.2069C108.398 34.0234 112.498 33.4316 117.106 33.4316C121.248 33.4316 125.095 33.9389 128.645 34.9533C132.238 35.9677 135.345 37.4682 137.966 39.4548C140.586 41.4414 142.636 43.9564 144.116 46.9996C145.595 50.0007 146.335 53.4878 146.335 57.461V86.8794C146.335 90.5568 146.567 93.6 147.032 96.0093C147.497 98.4186 148.174 100.49 149.061 102.223L150.224 104.569H132.34ZM114.379 90.9372C116.155 90.9372 117.803 90.7258 119.325 90.3032C120.847 89.8805 122.22 89.331 123.446 88.6547C124.672 87.9784 125.729 87.2176 126.616 86.3722C127.504 85.4846 128.201 84.597 128.709 83.7094V71.9166H119.705C116.958 71.9166 114.612 72.1913 112.668 72.7408C110.723 73.248 109.138 73.9666 107.912 74.8965C106.686 75.8686 105.778 77.031 105.186 78.3836C104.594 79.6939 104.298 81.131 104.298 82.6949C104.298 83.9207 104.51 85.0619 104.932 86.1186C105.397 87.1331 106.052 87.9995 106.898 88.7181C107.743 89.3944 108.779 89.9439 110.005 90.3666C111.273 90.747 112.731 90.9372 114.379 90.9372Z" fill="#025A74"/>
</g>
<g filter="url(#filter5_d_139_3634)">
<path d="M76.3982 74.3896C76.1023 79.0391 75.0878 83.2236 73.3548 86.9432C71.664 90.6628 69.3815 93.8328 66.5072 96.4535C63.6329 99.0741 60.2091 101.103 56.2358 102.54C52.2625 103.935 47.8665 104.632 43.0478 104.632C39.2436 104.632 35.7141 104.146 32.4594 103.174C29.2469 102.16 26.3515 100.723 23.7731 98.8627C21.406 97.1297 19.2925 95.0375 17.4327 92.5859C15.6151 90.1344 14.0723 87.4293 12.8042 84.4705C11.5784 81.5117 10.6274 78.2571 9.95106 74.7066C9.31702 71.1561 9 67.3943 9 63.4211V50.9943C9 47.2747 9.29588 43.7453 9.88765 40.4062C10.4794 37.0247 11.3671 33.8969 12.5506 31.0227C13.9032 27.5145 15.6785 24.3866 17.8765 21.6392C20.0745 18.8918 22.5684 16.5671 25.3582 14.665C27.852 13.0588 30.5784 11.833 33.5372 10.9877C36.5384 10.1001 39.7508 9.65625 43.1746 9.65625C48.2469 9.65625 52.7486 10.3748 56.6796 11.8119C60.6529 13.249 64.0344 15.299 66.8242 17.9619C69.614 20.6248 71.812 23.8794 73.4182 27.7258C75.0244 31.5722 76.0389 35.9046 76.4616 40.7232H58.7085C58.5394 37.9758 58.1168 35.5665 57.4404 33.4954C56.8064 31.4242 55.8765 29.6913 54.6507 28.2964C53.3826 26.9438 51.7975 25.9294 49.8954 25.2531C48.0356 24.5346 45.7953 24.1753 43.1746 24.1753C41.7797 24.1753 40.4694 24.3232 39.2436 24.6191C38.06 24.915 36.961 25.3588 35.9466 25.9505C34.2135 26.965 32.7341 28.4232 31.5083 30.3253C30.3248 32.1851 29.3737 34.3619 28.6552 36.8557C28.1057 38.8 27.7041 40.9557 27.4505 43.3227C27.1969 45.6474 27.0701 48.1623 27.0701 50.8675V63.4211C27.0701 67.0984 27.2603 70.3953 27.6407 73.3118C28.0634 76.186 28.6974 78.7009 29.5428 80.8566C30.1346 82.336 30.832 83.6463 31.6351 84.7875C32.4805 85.9287 33.4316 86.8798 34.4883 87.6406C35.6296 88.486 36.8976 89.12 38.2925 89.5427C39.7297 89.9231 41.3148 90.1133 43.0478 90.1133C45.3726 90.1133 47.4649 89.8174 49.3248 89.2256C51.1846 88.6339 52.7697 87.704 54.08 86.436C55.3904 85.1679 56.426 83.5406 57.1868 81.554C57.9477 79.5674 58.4126 77.1793 58.5817 74.3896H76.3982Z" fill="#025A74"/>
</g>
<g filter="url(#filter6_d_139_3634)">
<path d="M77.8814 25.8958C79.9981 23.6217 83.2723 23.8075 85.1951 26.3108C87.118 28.8142 86.9608 32.6866 84.8442 34.9607L51.7859 70.4787C49.8121 72.5993 46.7993 72.6005 44.8246 70.4811L34.9068 59.8362C32.7894 57.5633 32.6308 53.6908 34.5524 51.1863C36.4742 48.6819 39.749 48.4936 41.8666 50.7665L48.3025 57.6743L77.8814 25.8958Z" fill="url(#paint0_linear_139_3634)"/>
</g>
<defs>
<filter id="filter0_d_139_3634" x="332.605" y="24.1309" width="84.7351" height="91.2012" filterUnits="userSpaceOnUse" color-interpolation-filters="sRGB">
<feFlood flood-opacity="0" result="BackgroundImageFix"/>
<feColorMatrix in="SourceAlpha" type="matrix" values="0 0 0 0 0 0 0 0 0 0 0 0 0 0 0 0 0 0 127 0" result="hardAlpha"/>
<feOffset dx="1" dy="1"/>
<feGaussianBlur stdDeviation="5"/>
<feComposite in2="hardAlpha" operator="out"/>
<feColorMatrix type="matrix" values="0 0 0 0 0 0 0 0 0 0 0 0 0 0 0 0 0 0 0.1 0"/>
<feBlend mode="normal" in2="BackgroundImageFix" result="effect1_dropShadow_139_3634"/>
<feBlend mode="normal" in="SourceGraphic" in2="effect1_dropShadow_139_3634" result="shape"/>
</filter>
<filter id="filter1_d_139_3634" x="283.444" y="0.015625" width="69.1577" height="115.531" filterUnits="userSpaceOnUse" color-interpolation-filters="sRGB">
<feFlood flood-opacity="0" result="BackgroundImageFix"/>
<feColorMatrix in="SourceAlpha" type="matrix" values="0 0 0 0 0 0 0 0 0 0 0 0 0 0 0 0 0 0 127 0" result="hardAlpha"/>
<feOffset dx="1" dy="1"/>
<feGaussianBlur stdDeviation="5"/>
<feComposite in2="hardAlpha" operator="out"/>
<feColorMatrix type="matrix" values="0 0 0 0 0 0 0 0 0 0 0 0 0 0 0 0 0 0 0.1 0"/>
<feBlend mode="normal" in2="BackgroundImageFix" result="effect1_dropShadow_139_3634"/>
<feBlend mode="normal" in="SourceGraphic" in2="effect1_dropShadow_139_3634" result="shape"/>
</filter>
<filter id="filter2_d_139_3634" x="222.27" y="0" width="75.9221" height="115.547" filterUnits="userSpaceOnUse" color-interpolation-filters="sRGB">
<feFlood flood-opacity="0" result="BackgroundImageFix"/>
<feColorMatrix in="SourceAlpha" type="matrix" values="0 0 0 0 0 0 0 0 0 0 0 0 0 0 0 0 0 0 127 0" result="hardAlpha"/>
<feOffset dx="1" dy="1"/>
<feGaussianBlur stdDeviation="5"/>
<feComposite in2="hardAlpha" operator="out"/>
<feColorMatrix type="matrix" values="0 0 0 0 0 0 0 0 0 0 0 0 0 0 0 0 0 0 0.1 0"/>
<feBlend mode="normal" in2="BackgroundImageFix" result="effect1_dropShadow_139_3634"/>
<feBlend mode="normal" in="SourceGraphic" in2="effect1_dropShadow_139_3634" result="shape"/>
</filter>
<filter id="filter3_d_139_3634" x="150.476" y="0.609375" width="77.9697" height="114.969" filterUnits="userSpaceOnUse" color-interpolation-filters="sRGB">
<feFlood flood-opacity="0" result="BackgroundImageFix"/>
<feColorMatrix in="SourceAlpha" type="matrix" values="0 0 0 0 0 0 0 0 0 0 0 0 0 0 0 0 0 0 127 0" result="hardAlpha"/>
<feOffset dx="1" dy="1"/>
<feGaussianBlur stdDeviation="5"/>
<feComposite in2="hardAlpha" operator="out"/>
<feColorMatrix type="matrix" values="0 0 0 0 0 0 0 0 0 0 0 0 0 0 0 0 0 0 0.1 0"/>
<feBlend mode="normal" in2="BackgroundImageFix" result="effect1_dropShadow_139_3634"/>
<feBlend mode="normal" in="SourceGraphic" in2="effect1_dropShadow_139_3634" result="shape"/>
</filter>
<filter id="filter4_d_139_3634" x="77.672" y="24.4316" width="83.5519" height="91.1367" filterUnits="userSpaceOnUse" color-interpolation-filters="sRGB">
<feFlood flood-opacity="0" result="BackgroundImageFix"/>
<feColorMatrix in="SourceAlpha" type="matrix" values="0 0 0 0 0 0 0 0 0 0 0 0 0 0 0 0 0 0 127 0" result="hardAlpha"/>
<feOffset dx="1" dy="1"/>
<feGaussianBlur stdDeviation="5"/>
<feComposite in2="hardAlpha" operator="out"/>
<feColorMatrix type="matrix" values="0 0 0 0 0 0 0 0 0 0 0 0 0 0 0 0 0 0 0.1 0"/>
<feBlend mode="normal" in2="BackgroundImageFix" result="effect1_dropShadow_139_3634"/>
<feBlend mode="normal" in="SourceGraphic" in2="effect1_dropShadow_139_3634" result="shape"/>
</filter>
<filter id="filter5_d_139_3634" x="0" y="0.65625" width="87.4615" height="114.977" filterUnits="userSpaceOnUse" color-interpolation-filters="sRGB">
<feFlood flood-opacity="0" result="BackgroundImageFix"/>
<feColorMatrix in="SourceAlpha" type="matrix" values="0 0 0 0 0 0 0 0 0 0 0 0 0 0 0 0 0 0 127 0" result="hardAlpha"/>
<feOffset dx="1" dy="1"/>
<feGaussianBlur stdDeviation="5"/>
<feComposite in2="hardAlpha" operator="out"/>
<feColorMatrix type="matrix" values="0 0 0 0 0 0 0 0 0 0 0 0 0 0 0 0 0 0 0.1 0"/>
<feBlend mode="normal" in2="BackgroundImageFix" result="effect1_dropShadow_139_3634"/>
<feBlend mode="normal" in="SourceGraphic" in2="effect1_dropShadow_139_3634" result="shape"/>
</filter>
<filter id="filter6_d_139_3634" x="15.2089" y="6.30469" width="93.3315" height="87.7656" filterUnits="userSpaceOnUse" color-interpolation-filters="sRGB">
<feFlood flood-opacity="0" result="BackgroundImageFix"/>
<feColorMatrix in="SourceAlpha" type="matrix" values="0 0 0 0 0 0 0 0 0 0 0 0 0 0 0 0 0 0 127 0" result="hardAlpha"/>
<feOffset dx="2" dy="2"/>
<feGaussianBlur stdDeviation="10"/>
<feComposite in2="hardAlpha" operator="out"/>
<feColorMatrix type="matrix" values="0 0 0 0 0 0 0 0 0 0 0 0 0 0 0 0 0 0 0.2 0"/>
<feBlend mode="normal" in2="BackgroundImageFix" result="effect1_dropShadow_139_3634"/>
<feBlend mode="normal" in="SourceGraphic" in2="effect1_dropShadow_139_3634" result="shape"/>
</filter>
<linearGradient id="paint0_linear_139_3634" x1="33.2089" y1="24.3047" x2="95.3561" y2="52.932" gradientUnits="userSpaceOnUse">
<stop stop-color="#4784C1"/>
<stop offset="1" stop-color="#6BDAD2"/>
</linearGradient>
</defs>
</svg>
