<svg width="125" height="62" viewBox="0 0 125 62" fill="none" xmlns="http://www.w3.org/2000/svg">
<g filter="url(#filter0_dddi_2036_3805)">
<path d="M8.89062 30.8906C8.89062 18.7404 18.7404 8.89062 30.8906 8.89062H93.8906C106.041 8.89062 115.891 18.7404 115.891 30.8906C115.891 43.0409 106.041 52.8906 93.8906 52.8906H30.8906C18.7404 52.8906 8.89062 43.0409 8.89062 30.8906Z" fill="#E9F4F7" shape-rendering="crispEdges"/>
<path d="M32.2694 40.5306C30.2854 40.5306 28.4934 40.0826 26.8934 39.1866C25.3094 38.3066 24.0614 37.0906 23.1494 35.5386C22.2534 33.9706 21.8054 32.2106 21.8054 30.2586C21.8054 28.3066 22.2534 26.5546 23.1494 25.0026C24.0614 23.4346 25.3094 22.2106 26.8934 21.3306C28.4934 20.4346 30.2854 19.9866 32.2694 19.9866C34.0134 19.9866 35.5734 20.3066 36.9494 20.9466C38.3414 21.5866 39.4694 22.4666 40.3334 23.5866C41.1974 24.7066 41.7654 25.9626 42.0374 27.3546H37.6214C37.3814 26.3946 36.7814 25.5946 35.8214 24.9546C34.8774 24.3146 33.7254 23.9946 32.3654 23.9946C31.1974 23.9946 30.1414 24.2666 29.1974 24.8106C28.2534 25.3386 27.5094 26.0826 26.9654 27.0426C26.4374 27.9866 26.1734 29.0586 26.1734 30.2586C26.1734 31.4426 26.4374 32.5146 26.9654 33.4746C27.5094 34.4346 28.2534 35.1866 29.1974 35.7306C30.1414 36.2586 31.1974 36.5226 32.3654 36.5226C33.2614 36.5226 34.1014 36.3466 34.8854 35.9946C35.6854 35.6426 36.3414 35.1866 36.8534 34.6266C37.3814 34.0666 37.7014 33.4906 37.8134 32.8986H42.2294C42.0214 34.2266 41.4694 35.4746 40.5734 36.6426C39.6774 37.8106 38.5014 38.7466 37.0454 39.4506C35.6054 40.1706 34.0134 40.5306 32.2694 40.5306ZM50.7475 40.3866C49.4195 40.3866 48.2355 40.0666 47.1955 39.4266C46.1555 38.8026 45.3475 37.9306 44.7715 36.8106C44.1955 35.6906 43.9075 34.4266 43.9075 33.0186C43.9075 31.6106 44.1955 30.3466 44.7715 29.2266C45.3475 28.1066 46.1555 27.2346 47.1955 26.6106C48.2355 25.9706 49.4195 25.6506 50.7475 25.6506C52.5555 25.6506 53.8995 26.2426 54.7795 27.4266V25.9866H59.0515V40.0506H54.7795V38.6106C53.8995 39.7946 52.5555 40.3866 50.7475 40.3866ZM51.4195 36.7386C52.4595 36.7386 53.2915 36.3946 53.9155 35.7066C54.5395 35.0026 54.8515 34.1066 54.8515 33.0186C54.8515 31.9306 54.5395 31.0426 53.9155 30.3546C53.2915 29.6506 52.4595 29.2986 51.4195 29.2986C50.4115 29.2986 49.6035 29.6506 48.9955 30.3546C48.3875 31.0426 48.0835 31.9306 48.0835 33.0186C48.0835 34.1066 48.3875 35.0026 48.9955 35.7066C49.6035 36.3946 50.4115 36.7386 51.4195 36.7386ZM66.548 40.0506H62.276V19.8906H66.548V40.0506Z" fill="#025A74"/>
<path d="M71.8885 19.1946C72.6405 19.1946 73.2645 19.4426 73.7605 19.9386C74.2565 20.4346 74.5045 21.0586 74.5045 21.8106C74.5045 22.5626 74.2565 23.1866 73.7605 23.6826C73.2645 24.1786 72.6405 24.4266 71.8885 24.4266C71.1365 24.4266 70.5125 24.1786 70.0165 23.6826C69.5205 23.1866 69.2725 22.5626 69.2725 21.8106C69.2725 21.0586 69.5205 20.4346 70.0165 19.9386C70.5125 19.4426 71.1365 19.1946 71.8885 19.1946ZM74.0245 40.0986H69.7525V25.9866H74.0245V40.0986ZM80.3011 41.4906H76.1011L84.8851 19.0506H89.0851L80.3011 41.4906ZM95.4809 25.6506C96.9049 25.6506 98.1849 25.9706 99.3209 26.6106C100.457 27.2346 101.345 28.1066 101.985 29.2266C102.625 30.3466 102.945 31.6106 102.945 33.0186C102.945 34.4266 102.625 35.6906 101.985 36.8106C101.345 37.9306 100.457 38.8026 99.3209 39.4266C98.1849 40.0666 96.9049 40.3866 95.4809 40.3866C94.0569 40.3866 92.7769 40.0666 91.6409 39.4266C90.5049 38.8026 89.6169 37.9306 88.9769 36.8106C88.3369 35.6906 88.0169 34.4266 88.0169 33.0186C88.0169 31.6106 88.3369 30.3466 88.9769 29.2266C89.6169 28.1066 90.5049 27.2346 91.6409 26.6106C92.7769 25.9706 94.0569 25.6506 95.4809 25.6506ZM95.4809 29.2986C94.4889 29.2986 93.6809 29.6506 93.0569 30.3546C92.4489 31.0426 92.1449 31.9306 92.1449 33.0186C92.1449 34.1066 92.4489 35.0026 93.0569 35.7066C93.6809 36.3946 94.4889 36.7386 95.4809 36.7386C96.4729 36.7386 97.2729 36.3946 97.8809 35.7066C98.5049 35.0026 98.8169 34.1066 98.8169 33.0186C98.8169 31.9306 98.5049 31.0426 97.8809 30.3546C97.2729 29.6506 96.4729 29.2986 95.4809 29.2986Z" fill="#138AAC"/>
</g>
<defs>
<filter id="filter0_dddi_2036_3805" x="6.56843e-05" y="6.56843e-05" width="124.781" height="61.7811" filterUnits="userSpaceOnUse" color-interpolation-filters="sRGB">
<feFlood flood-opacity="0" result="BackgroundImageFix"/>
<feColorMatrix in="SourceAlpha" type="matrix" values="0 0 0 0 0 0 0 0 0 0 0 0 0 0 0 0 0 0 127 0" result="hardAlpha"/>
<feMorphology radius="0.42336" operator="dilate" in="SourceAlpha" result="effect1_dropShadow_2036_3805"/>
<feOffset/>
<feGaussianBlur stdDeviation="4.2336"/>
<feComposite in2="hardAlpha" operator="out"/>
<feColorMatrix type="matrix" values="0 0 0 0 0.882353 0 0 0 0 0.933333 0 0 0 0 0.901961 0 0 0 0.4 0"/>
<feBlend mode="normal" in2="BackgroundImageFix" result="effect1_dropShadow_2036_3805"/>
<feColorMatrix in="SourceAlpha" type="matrix" values="0 0 0 0 0 0 0 0 0 0 0 0 0 0 0 0 0 0 127 0" result="hardAlpha"/>
<feOffset/>
<feGaussianBlur stdDeviation="0.84672"/>
<feComposite in2="hardAlpha" operator="out"/>
<feColorMatrix type="matrix" values="0 0 0 0 0.882353 0 0 0 0 0.933333 0 0 0 0 0.901961 0 0 0 1 0"/>
<feBlend mode="normal" in2="effect1_dropShadow_2036_3805" result="effect2_dropShadow_2036_3805"/>
<feColorMatrix in="SourceAlpha" type="matrix" values="0 0 0 0 0 0 0 0 0 0 0 0 0 0 0 0 0 0 127 0" result="hardAlpha"/>
<feOffset dy="1"/>
<feGaussianBlur stdDeviation="2"/>
<feComposite in2="hardAlpha" operator="out"/>
<feColorMatrix type="matrix" values="0 0 0 0 0 0 0 0 0 0 0 0 0 0 0 0 0 0 0.1 0"/>
<feBlend mode="normal" in2="effect2_dropShadow_2036_3805" result="effect3_dropShadow_2036_3805"/>
<feBlend mode="normal" in="SourceGraphic" in2="effect3_dropShadow_2036_3805" result="shape"/>
<feColorMatrix in="SourceAlpha" type="matrix" values="0 0 0 0 0 0 0 0 0 0 0 0 0 0 0 0 0 0 127 0" result="hardAlpha"/>
<feOffset/>
<feGaussianBlur stdDeviation="2.1168"/>
<feComposite in2="hardAlpha" operator="arithmetic" k2="-1" k3="1"/>
<feColorMatrix type="matrix" values="0 0 0 0 0 0 0 0 0 0 0 0 0 0 0 0 0 0 0.1 0"/>
<feBlend mode="normal" in2="shape" result="effect4_innerShadow_2036_3805"/>
</filter>
</defs>
</svg>
